Coordinates
version=1
nRows=12
nColumns=33
inDegrees=yes

Units are S.I. units (second, meters, Newtons, ...)
Angles are in degrees.

endheader
time	ground_thorax_rot_x	ground_thorax_rot_y	ground_thorax_rot_z	ground_thorax_tx	ground_thorax_ty	ground_thorax_tz	clav_prot_r	clav_elev_r	scapula_abduction_r	scapula_elevation_r	scapula_upward_rot_r	scapula_winging_r	shoulder_elv_r	plane_of_elev_r	axial_rot_r	elbow_flexion_r	pro_sup_r	wrist_flex_r	wrist_dev_r	clav_prot_l	clav_elev_l	scapula_abduction_l	scapula_elevation_l	scapula_upward_rot_l	scapula_winging_l	shoulder_elv_l	plane_of_elev_l	axial_rot_l	elbow_flexion_l	pro_sup_l	wrist_flex_l	wrist_dev_l
      2.40000000	     18.33931502	     37.06599838	     19.24327496	     -0.01278902	      1.01915497	     -0.05664702	    -13.45939129	     35.81431040	    -10.51625595	     27.11693002	     45.00000000	     -7.96229748	      7.64156584	    -90.00000000	     37.59829677	     77.03878118	    -17.83901351	     28.20898273	    -13.57260828	     17.77601363	     -9.57118513	    -45.00000000	      3.96472494	      9.72068102	     19.19487450	     15.57107873	    -53.74539207	    -31.79186646	     66.08717940	      9.32651174	     13.97703587	    -14.55304139
      2.41000000	     18.24838129	     37.13446896	     19.34635953	     -0.01265505	      1.01882268	     -0.05689149	    -13.43162480	     35.80478941	    -10.42367700	     27.10943792	     45.00000000	     -7.96474765	      7.67137325	    -90.00000000	     37.56851681	     77.05446353	    -17.85017474	     28.20748839	    -13.56988737	     17.76162600	     -9.62927717	    -45.00000000	      4.02575071	      9.77358040	     19.15685355	     15.56503209	    -53.62144306	    -31.79609241	     66.09186209	      9.31474143	     13.97954408	    -14.54514900
      2.42000000	     18.14894856	     37.25931707	     19.36380348	     -0.01305418	      1.01933830	     -0.05699113	    -13.49447327	     35.61904173	    -10.27740651	     26.92728606	     45.00000000	     -8.06662387	      7.71016777	    -90.00000000	     37.52980070	     76.95832878	    -18.58458203	     27.58354669	    -13.16570344	     17.95578806	     -9.81571134	    -45.00000000	      3.99053542	      9.10652593	     19.13127067	     15.85299321	    -52.66168097	    -31.57236431	     65.74444497	      8.53092198	     14.56606887	    -13.77052462
      2.43000000	     18.06422829	     37.31746359	     19.45628426	     -0.01285475	      1.01894312	     -0.05722576	    -13.46391196	     35.61072557	    -10.17676868	     26.92021780	     45.00000000	     -8.06831635	      7.73695727	    -90.00000000	     37.50304622	     76.97961203	    -18.59347454	     27.58464790	    -13.16210619	     17.94158635	     -9.87337390	    -45.00000000	      4.05189074	      9.16123307	     19.09397922	     15.85007187	    -52.53858082	    -31.57991574	     65.75257936	      8.51995220	     14.56880275	    -13.76562862
      2.44000000	     17.99626500	     37.39392023	     19.37328483	     -0.01327117	      1.01937041	     -0.05735878	    -13.52086200	     35.38129107	     -9.95033321	     26.69737674	     45.00000000	     -8.19109993	      7.78760614	    -90.00000000	     37.45245993	     76.89794506	    -19.24538117	     27.00673647	    -12.79891887	     18.12566357	    -10.07065555	    -45.00000000	      4.03219313	      8.52550777	     19.05864367	     16.19406374	    -51.54005906	    -31.40286056	     65.39453618	      7.80844654	     15.12772783	    -13.08983945
      2.45000000	     17.91902769	     37.48472915	     19.49658495	     -0.01323477	      1.01936871	     -0.05752426	    -13.46626620	     35.35888306	     -9.77530712	     26.67936156	     45.00000000	     -8.19874723	      7.74744510	    -90.00000000	     37.49266584	     76.78016474	    -19.30948810	     26.92111882	    -12.75847989	     18.13458845	    -10.23667252	    -45.00000000	      4.16388405	      8.52315721	     18.97277874	     16.21202185	    -51.30343186	    -31.46920447	     65.19169251	      7.76558882	     15.18841534	    -12.98436240
      2.46000000	     17.81574069	     37.57601930	     19.58898750	     -0.01335254	      1.01955573	     -0.05772811	    -13.48515443	     35.24618638	     -9.63528380	     26.57126262	     45.00000000	     -8.26026111	      7.76498516	    -90.00000000	     37.47519495	     76.64688874	    -19.41819033	     26.75223208	    -12.69921689	     18.16151996	    -10.40338448	    -45.00000000	      4.27735724	      8.45435097	     18.89580487	     16.24556679	    -50.97688589	    -31.42608096	     64.91179930	      7.68874363	     15.29013840	    -12.80067552
      2.47000000	     17.72305690	     37.63148932	     19.67497980	     -0.01312675	      1.01913506	     -0.05795608	    -13.46836559	     35.22050739	     -9.55260163	     26.54804984	     45.00000000	     -8.27121074	      7.80226049	    -90.00000000	     37.43798117	     76.67439632	    -19.43201373	     26.73987617	    -12.69244796	     18.15302809	    -10.45474898	    -45.00000000	      4.33054840	      8.49742647	     18.86196483	     16.23521843	    -50.83526110	    -31.41068305	     64.92647024	      7.67178919	     15.30072526	    -12.78768117
      2.48000000	     17.73235767	     37.70151102	     19.53247274	     -0.01364279	      1.01922770	     -0.05831330	    -13.46165805	     35.06551296	     -9.28504915	     26.40145846	     45.00000000	     -8.35006723	      7.91737698	    -90.00000000	     37.32534428	     76.77224360	    -20.38078875	     25.58783191	    -12.03220962	     18.52001635	    -10.52523246	    -45.00000000	      3.99856620	      7.12013883	     18.96965591	     16.75802115	    -49.02054341	    -30.98829002	     64.55499956	      6.57340955	     16.69702332	    -11.69253539
      2.49000000	     17.57245243	     37.83358755	     19.65648006	     -0.01357360	      1.01936779	     -0.05829049	    -13.52900220	     34.94483839	     -9.26426460	     26.28156290	     45.00000000	     -8.41579209	      7.93124762	    -90.00000000	     37.31210312	     76.66098568	    -20.44203897	     25.52683194	    -12.01809152	     18.53808728	    -10.70911892	    -45.00000000	      4.13800563	      7.09264036	     18.87333930	     16.84133491	    -48.77179136	    -30.95415682	     64.25163601	      6.53670820	     16.67671610	    -11.56452190
      2.50000000	     17.48311890	     37.87754384	     19.73731216	     -0.01326300	      1.01896708	     -0.05854242	    -13.51882624	     34.92014369	     -9.19178309	     26.25777890	     45.00000000	     -8.42396165	      7.96592082	    -89.96911022	     37.27763271	     76.67305142	    -20.45203558	     25.52103294	    -12.01691084	     18.52730575	    -10.76685864	    -45.00000000	      4.19611547	      7.13405986	     18.83346650	     16.82598173	    -48.63868735	    -30.95032100	     64.25855543	      6.52579431	     16.67884315	    -11.55602982
      2.51000000	     17.48440989	     38.04098599	     19.59882345	     -0.01384247	      1.01919336	     -0.05880910	    -13.55370623	     34.73207429	     -8.99210825	     26.07785233	     45.00000000	     -8.52508714	      8.06575738	    -90.00000000	     37.19171222	     76.60185738	    -21.27152001	     24.75274055	    -11.55075620	     18.92122351	    -10.96133100	    -45.00000000	      3.92613858	      5.64881571	     18.88385788	     17.54290891	    -46.74351022	    -30.77167287	     63.82008036	      5.55265724	     17.75682169	    -10.59850766
